<svg
      xmlns="http://www.w3.org/2000/svg"
      viewBox="110 80 160 160"
      fill="currentColor"
      className="w-full h-full"
    >
      <path
        fill="#0b0c10"
        d="M182.05 228.594c1.73 1.726 3.988 2.574 6.246 2.574 2.223 0 4.48-.847 6.211-2.574l24.242-24.242c-.742.141-1.515.246-2.257.246h-6.457l-19.762 19.758a6.019 6.019 0 0 1-4.238 1.757 5.96 5.96 0 0 1-4.012-1.757l-19.758-19.758h-6.46a11.36 11.36 0 0 1-2.257-.246l24.242 24.242zM158.055 107.734l24-23.996c1.73-1.691 3.988-2.574 6.246-2.574 2.223 0 4.48.883 6.211 2.574l24 23.996h-8.469l-19.762-19.758a6.019 6.019 0 0 0-4.238-1.758 5.96 5.96 0 0 0-4.012 1.758l-19.758 19.758h-8.469z"
      />
      <path
        fill="#0b0c10"
        d="M196.555 148.137h-26.922v-35.356H148.246v75.727c0-5.188 6.738-12.633 11.82-12.633h8.566v-30.98h27.922v-21.434z"
      />
      <path
        fill="#0b0c10"
        d="M216.492 199.55c5.078 0 11.82-7.445 11.82-12.633v-74.137H182.297v20.148h24.492V199.55zM143.2 181.273l-23.11-23.113a5.95 5.95 0 0 1 0-8.023l23.11-23.113v-8.469L115.852 149.938c-1.691 1.73-2.574 3.988-2.574 6.246s.883 4.48 2.574 6.21l27.348 27.348v-8.469zM233.359 122.59l27.348 27.347c1.73 1.73 2.578 3.988 2.578 6.246 0 2.223-.848 4.48-2.578 6.211l-27.809 27.84c.285-1.129.461-2.258.461-3.317v-5.645l23.113-23.113a5.95 5.95 0 0 0 0-8.024l-23.113-23.113v-8.469z"
      />
    </svg>